# xmcd
#
# Track frame offsets:
#	150
#	18333
#	33875
#	49203
#	65506
#	78655
#	93496
#	106756
#	121373
#	136068
#	154251
#	169793
#	185121
#	201424
#	214573
#	229414
#	242674
#	257291
#
# Disc length: 3626
#
# Revision: 1
# Processed by: cddbd v1.5.2PL0 Copyright (c) Steve Scherf et al.
# Submitted via: kJams Pro (development) 1.0patch45.10
#
DISCID=f50e2812
DTITLE=Various Artist - NSC 3029
DYEAR=1996
DGENRE=Country
TTITLE0=Tim McGraw - Unbroken
TTITLE1=Toby Keith - Courtesy Of The Red, White and Blue
TTITLE2=Kenny Chesney - The Good Stuff
TTITLE3=Lee Ann Womack - Something Worth Leaving Behind
TTITLE4=Phil Vassar - American Child
TTITLE5=Chris Cagle - Country By The Grace Of God
TTITLE6=Hometown News - Minivan
TTITLE7=Sixwire - Look At Me Now
TTITLE8=Pinmonkey - Barbed Wire and Roses
TTITLE9=Tim McGraw - Vocals - Unbroken
TTITLE10=Toby Keith - Vocals - Courtesy Of The Red, White and Blue
TTITLE11=Kenny Chesney - Vocals - The Good Stuff
TTITLE12=Lee Ann Womack - Vocals - Something Worth Leaving Behind
TTITLE13=Phil Vassar - Vocals - American Child
TTITLE14=Chris Cagle - Vocals - Country By The Grace Of God
TTITLE15=Hometown News - Vocals - Minivan
TTITLE16=Sixwire - Vocals - Look At Me Now
TTITLE17=Pinmonkey - Vocals - Barbed Wire and Roses
EXTD=
EXTT0=
EXTT1=
EXTT2=
EXTT3=
EXTT4=
EXTT5=
EXTT6=
EXTT7=
EXTT8=
EXTT9=
EXTT10=
EXTT11=
EXTT12=
EXTT13=
EXTT14=
EXTT15=
EXTT16=
EXTT17=
PLAYORDER=
